<svg xmlns="http://www.w3.org/2000/svg" fill="currentColor" viewBox="0 0 24 24"><path fill-opacity=".85" d="M21.42 3.52v12.85a2.7 2.7 0 0 1-.95 2.09c-1.38 1.4-1.1 3.21.32 3.78.36.13.63.46.63.86 0 .5-.4.9-.9.9H6.02q-3.43 0-3.44-3.46V3.52Q2.58 0 6.05.01h11.89q3.47 0 3.48 3.51M17.7 18.86H6.2c-1.1 0-1.83.66-1.83 1.66 0 1.06.6 1.68 1.73 1.68h12.15c-.6-.97-.69-2.2-.16-3.37q-.18.03-.4.03M5.14 2.38v14.14a.65.65 0 0 0 1.29 0V2.38c0-.36-.3-.64-.64-.64a.65.65 0 0 0-.65.64M9.29 8.8a.77.77 0 0 0-.77.76c0 .43.35.77.77.77h6.55c.42 0 .76-.34.76-.77a.76.76 0 0 0-.76-.76Zm0-3.18a.77.77 0 0 0-.77.77c0 .4.35.75.77.75h8.63c.4 0 .76-.34.76-.75a.77.77 0 0 0-.76-.77Z"/></svg>
